<?xml version="1.0" encoding="UTF-8"?>
<svg xmlns="http://www.w3.org/2000/svg" version="1.1" viewBox="0 0 64 64">
  <defs>
    <style>
      .cls-1 {
        fill: #b3c910;
      }

      .cls-2 {
        fill: #afc80a;
      }

      .cls-3 {
        fill: #b2c90c;
      }

      .cls-4 {
        fill: #f8f1c2;
      }

      .cls-5 {
        fill: #f7f9de;
      }

      .cls-6 {
        fill: #b1c912;
      }

      .cls-7 {
        fill: #f2f6ca;
      }

      .cls-8 {
        fill: #d2cb7b;
      }

      .cls-9 {
        fill: #874434;
      }

      .cls-10 {
        fill: #afca0c;
      }

      .cls-11 {
        fill: #894230;
      }

      .cls-12 {
        fill: #b3c80e;
      }

      .cls-13 {
        fill: #b4ca1e;
      }

      .cls-14 {
        fill: #894a3b;
      }

      .cls-15 {
        fill: #89463b;
      }

      .cls-16 {
        fill: #d6e535;
      }

      .cls-17 {
        fill: #c7d92f;
      }

      .cls-18 {
        fill: #7cbe37;
      }

      .cls-19 {
        fill: #f5f7ce;
      }

      .cls-20 {
        fill: #894538;
      }

      .cls-21 {
        fill: #b2c80c;
      }

      .cls-22 {
        fill: #894431;
      }

      .cls-23 {
        fill: #68a42e;
      }

      .cls-24 {
        fill: #b0c80a;
      }

      .cls-25 {
        fill: #b1c90d;
      }

      .cls-26 {
        fill: #eddc9b;
      }
    </style>
  </defs>
  <!-- Generator: Adobe Illustrator 28.7.1, SVG Export Plug-In . SVG Version: 1.2.0 Build 142)  -->
  <g>
    <g id="Layer_1">
      <g>
        <path class="cls-6" d="M15.5,62.1c-3.4-.2-6.6-1.2-9.5-3.3-2.8-2-4.5-4.7-5.4-8-.8-3-.8-6.1-.2-9.2.7-3.8,2.4-7.3,4.1-10.6,2.1-4,3.9-8.2,5.4-12.5,1.2-3.4,3.4-5.8,6.9-6.7.4-.1.8,0,1.4-.1.6,0,1,0,1.5,0,1.1.2,2.2.4,3.3.7.3.2.5.3.7.4,0,0,0,0,0,0,.5.4.9.7,1.4,1,1.4,1.3,2.2,3,2.8,4.7,1.1,3,2,6.1,3.2,9.1,1.1,2.6,2.4,5.1,3.7,7.7,1.6,3.5,2.6,7.2,2.6,11.1,0,4-1.1,7.8-3.8,10.8-1.5,1.8-3.5,2.9-5.7,3.7-1.4.5-2.9.8-4.4,1.1-.7,0-1.2.1-1.8.1-.2-.6-.5-.7-1-.7-1.1,0-2.2.1-3.3,0-.8-.1-1.2,0-1.7.6M20.7,13.2c-.2,0-.4,0-.7,0,0,0,0,0-.2,0-.8,0-1.5.2-2.5.3-2.4.4-4.2,1.9-5.2,4.2-.9,2-1.4,4.2-2.3,6.1-1.6,3.5-3.3,6.9-4.9,10.3-2,4.1-3.5,8.3-3,13,.3,2.8,1.1,5.4,3.1,7.4,3.4,3.5,7.6,5.2,12.5,5.5.9.4,1.9.5,3,0,1.1-.1,2.3-.2,3.4-.4,2.7-.4,5.2-1.5,7.2-3.5,3.6-3.8,4.7-8.4,4.1-13.5-.4-3.3-1.9-6.3-3.2-9.4-1.3-3-2.6-6-3.7-9.1-1.1-3.3-1.9-6.7-4.3-9.5-.3-.2-.6-.4-1-.6,0,0,0,0,0-.2-.2,0-.4-.1-.6-.2,0,0,0,0,0-.2-.5,0-.9-.1-1.5-.2h0Z"/>
        <path class="cls-15" d="M19.6,11.7c-.4,0-.9,0-1.4,0-.2-.9-.3-1.8-.4-2.7-.3-1.7-1.1-3.2-2.4-4.4-.5-.4-1.1-1-.5-1.7.5-.6,1.5-.6,2,.3.5.7,1.1,1.6,1.3,2.4.5,2,.9,4,1.3,6.1h0Z"/>
        <path class="cls-9" d="M15.5,62.2c.4-.6.9-.8,1.6-.7,1.1.2,2.2,0,3.3,0,.5,0,.8.1,1,.7,0,.3,0,.4,0,.6-.4.8-.9.6-1.5.3-1,1.1-1.4,1.1-2.3-.1-1.2.6-1.7.4-2.2-.9h0Z"/>
        <path class="cls-19" d="M21.5,62.9c0-.2,0-.3,0-.5.6,0,1.1-.1,1.8-.2-.3.9-1,.7-1.7.7h0Z"/>
        <path class="cls-13" d="M25,13.9c-.4-.3-.9-.6-1.4-1,.4.3.9.6,1.4,1Z"/>
        <path class="cls-13" d="M23.6,12.8c-.2,0-.4-.1-.7-.3.2,0,.4.1.7.3Z"/>
        <path class="cls-4" d="M17.3,60c-4.8-.3-9-1.9-12.4-5.4-2-2-2.8-4.6-3.1-7.4-.5-4.7,1-8.9,3-13,1.7-3.4,3.4-6.8,4.9-10.3.9-2,1.4-4.2,2.3-6.1,1-2.3,2.8-3.7,5.4-4.1.7,0,.9.2,1,.7.2,2.1.6,4.1.8,6.2.1,1.4.2,2.8.2,4.3,0,2.1.1,4.2.1,6.2,0,.7-.1,1.4-.3,2.1-.6,2.2-1.9,4-3.1,5.8-1.3,1.9-2.2,4-2.3,6.2-.1,2.5.9,4.5,2.9,6,.5.4,1.1,1,1.2,1.6.1,2.4.6,4.9-.6,7.2h0Z"/>
        <path class="cls-4" d="M24,14.7c2.4,2.7,3.2,6.1,4.3,9.4,1,3.1,2.4,6.1,3.7,9.1,1.3,3,2.7,6,3.2,9.4.7,5.1-.5,9.8-4.1,13.5-2,2.1-4.5,3.1-7.2,3.5-1.1.2-2.3.3-3.5.3-.2-2-.3-4-.4-6,0-1.3.6-2.1,1.6-2.8.5-.3,1-.7,1.4-1.2,2.1-2.8,1.9-5.8.7-8.8-.4-1.2-.9-2.4-1.6-3.4-1.1-1.7-1.1-3.7-1.2-5.6-.1-2.2,0-4.3,0-6.5-.1-2.8-.4-5.7-.7-8.5,0-1.3-.2-2.6-.2-3.9,0,0,0,0,.2,0,.3,0,.6,0,.8,0,.5,0,.9.1,1.3.2,0,0,0,0,.1,0,.2.1.4.2.6.3,0,0,0,0,.1,0,.4.3.6.5.9.7h0Z"/>
        <path class="cls-26" d="M19.8,13.2c.1,1.3.2,2.6.3,4,.2,2.8.5,5.6.7,8.5.1,2.2,0,4.3,0,6.5,0,1.9.1,3.8,1.2,5.6.7,1,1.2,2.2,1.6,3.4,1.1,3,1.4,6-.7,8.8-.4.5-.9.9-1.4,1.2-1,.6-1.7,1.5-1.6,2.8.1,2,.2,3.9.3,6-.9.6-1.9.5-2.9,0,1.2-2.3.7-4.8.6-7.2,0-.6-.7-1.2-1.2-1.6-2-1.5-3.1-3.5-2.9-6,.1-2.3,1.1-4.3,2.3-6.2,1.2-1.8,2.5-3.6,3.1-5.8.2-.7.3-1.4.3-2.1,0-2.1,0-4.2-.1-6.2,0-1.4,0-2.9-.2-4.3-.2-2.1-.5-4.1-.8-6.2,0-.6-.3-.8-.9-.7.7-.1,1.5-.2,2.3-.3M17.6,42.6c-.4.6-1,1.1-1.3,1.7-.3.7-.6,1.4-.7,2.2,0,.8.4,1.2,1.1,1.4.7.2,1.3,0,1.6-.8.5-1.5.5-3,0-4.5-.2-.6-.5-.4-.8,0M22.2,42.8c-.3-.3-.5-.7-.8-1-.4-.4-.8-.3-.8.2,0,1.4-.2,2.7,0,4.1,0,.8.6,1.2,1.4,1.2.7,0,1.3-.7,1.2-1.5-.2-1-.6-1.9-.9-3h0Z"/>
        <path class="cls-13" d="M22.2,13.5c-.4,0-.8,0-1.3-.2,0,0,0-.1,0-.1.5,0,.9.1,1.4.3Z"/>
        <path class="cls-13" d="M24,14.6c-.3-.1-.6-.3-.9-.6.3.1.6.3.9.6Z"/>
        <path class="cls-13" d="M22.9,13.8c-.2,0-.3,0-.6-.2.2,0,.3,0,.6.2Z"/>
        <path class="cls-26" d="M20.8,13.2c0,0,0,0,0,.1-.2,0-.4,0-.7,0,.1,0,.3,0,.6-.1h0Z"/>
        <path class="cls-22" d="M17.6,42.5c.3-.4.6-.5.8,0,.4,1.5.5,3.1,0,4.5-.3.7-.9,1-1.6.8-.7-.2-1.2-.6-1.1-1.4,0-.8.3-1.5.7-2.2.3-.6.8-1.2,1.3-1.8h0Z"/>
        <path class="cls-11" d="M22.2,42.8c.3,1,.7,2,.9,3,.1.8-.5,1.4-1.2,1.5-.8,0-1.4-.4-1.4-1.2,0-1.3,0-2.7,0-4.1,0-.5.5-.6.8-.2.3.3.5.6.8,1h0Z"/>
      </g>
      <g>
        <path class="cls-17" d="M27.1,46.4c0-.8,0-1.7.2-2.4.4-1.7.6-3.5,1.3-5,1.1-2.3,2.7-4.4,4.1-6.6,1.8-2.8,3.7-5.5,5-8.6,1.6-3.5,3.3-6.9,6.3-9.4,1.6-1.3,3.4-2.1,5.6-2,1.2.2,2.3.4,3.4.6,0,.1,0,.2,0,.4.4.4.7.7,1,1.1,1.9,2.6,1.9,5.6,1.9,8.6,0,1.8-.1,3.6,0,5.4.4,3.2,1.1,6.3,1.5,9.4.2,1.6.2,3.2.3,4.9.1,3.1-.2,6.1-1.4,9.1-1.3,3.3-3.4,5.7-6.4,7.3-2.4,1.2-5,1.7-7.7,1.6-1.5,0-3-.3-4.6-.4-.5,0-1,0-1.5,0-1.9-.8-3.7-1.8-5.1-3.4-1-1.2-1.8-2.7-2.8-4.1-.1-.5-.2-.8-.3-1.1-.3-1.3-.7-2.5-1-3.8,0,0,0,0,0,0,0-.5,0-1-.1-1.4M40.3,32.1c.5-1,1.3-1.9,1.6-3,.8-2.5,1.4-5,2.2-7.6.4-1.2.8-2.3,1.4-3.4.5-.9,1.4-1.7,2-2.6.2-.2.2-.5.2-.8-.3,0-.7-.2-.9,0-.8.6-1.6,1.2-2.2,1.9-.7.8-1.4,1.8-1.9,2.7-.6,1-1,2.1-1.5,3.2-.5,1.3-.9,2.8-1.6,4-1.1,1.8-2.5,3.5-3.8,5.3-1.1,1.7-2.2,3.4-3.3,5.1-1.2,1.8-1.8,3.9-2.1,6-.4,2.1.3,4.2,1.3,6,.3.5.9.7,1.3,1.1.3-.5.7-1,.7-1.5.3-2.1.5-4.3.9-6.4.4-2.2,1.5-4.2,2.8-6.1.9-1.3,1.9-2.6,2.9-4M50.1,56c-.3-.3-.5-.6-.9-.8-.1,0-.6.3-.6.5,0,.4,0,1,.3,1.1.6.3,1-.1,1.2-.9M52.4,50.5c0,.6,0,1,.7,1,.7,0,.9-.3.9-.9,0-.2-.3-.6-.4-.6-.4,0-.7.2-1.2.5M41.5,56.1c.3.2.5.5.9.7.1,0,.5-.4.5-.7,0-.2-.3-.6-.5-.7-.5-.2-.8,0-.9.7M46,51.3c0,.7.3,1,.8.9.2,0,.5-.6.5-1,0-.6-.6-.6-1.3,0M37.9,53.6c-.3.2-.7.3-1,.5.1.3.2.6.4.7.2.1.7,0,.7-.1,0-.3,0-.7-.1-1.1M54,44.8c.3.4.6.7,1,.2.2-.2.2-.5.2-.8,0-.1-.4-.4-.5-.3-.3.2-.5.5-.7.9M50.2,47.5c.3-.1.6-.2.8-.4,0,0,0-.6-.2-.7-.2,0-.5,0-.8,0,0,.3,0,.6.2,1Z"/>
        <path class="cls-2" d="M36.4,60.3c.4,0,.9,0,1.4,0,1.5.1,3,.4,4.6.4,2.7.1,5.3-.4,7.7-1.6,3-1.6,5.2-4,6.4-7.3,1.1-2.9,1.5-6,1.4-9.1,0-1.6,0-3.3-.3-4.9-.4-3.2-1.1-6.3-1.5-9.4-.2-1.8,0-3.6,0-5.4,0-3,0-6.1-1.9-8.6-.3-.4-.7-.7-1.1-1,0,0,0-.2,0-.2.2,0,.3,0,.4,0,1,.1,1.6,1.1,2.2,1.7,2,2.1,2.8,4.9,3.2,7.7,0,.4.1.7.2,1.2.1.6.3,1.1.4,1.6.7,2.4,1.4,4.7,2.1,7.1,1,3.4,2.2,6.7,2.4,10.2.4,5.6-.6,10.8-4.4,15.1-1.8,2.1-4.2,3.5-6.8,4.1-2,.4-4,.5-6.2.7-2-.2-3.8-.5-5.7-.7-1.1-.4-2.2-.7-3.4-1.1-.2-.1-.4-.2-.5-.2-.2,0-.4-.2-.6-.3h0Z"/>
        <path class="cls-23" d="M48.9,8.6c-1.3,1.3-3,1.6-4.7,1.7-3.1.1-6-.4-8.7-2.2-2.1-1.4-3.4-3.4-4-5.9,0-.2,0-.5.1-.7,1.1,1.2,2.3,2,3.7,2.3,3.1.6,6.2,1,9.3,1.5,1.6.3,3,1.1,4.2,2.3.2.2.2.6.3,1,0,0,0,0,0,0s-.1,0-.1,0h0Z"/>
        <path class="cls-18" d="M49.2,8.5c-.2-.3-.2-.8-.4-1-1.2-1.1-2.6-2-4.2-2.3-3.1-.5-6.2-.9-9.3-1.5-1.4-.3-2.6-1.1-3.6-2.3,2,.2,3.8-.6,5.7-1,2.8-.6,5.6-.7,8.4.3,2.4.9,3.7,2.7,3.9,5.3,0,1,.2,1.9,1.1,2.5.2.1.4.4.5.7-.1.5-.2.8-.3,1.1-.6-.6-1.2-1.3-1.9-1.9Z"/>
        <path class="cls-20" d="M51,10.4c.1-.4.2-.7.3-1.1.3-.6.6-1.1,1-1.6.9-1.1,1.7-2.3,2.7-3.4.5-.6,1.3-.7,1.9,0,.4.4.5.9,0,1.3-.2.2-.4.3-.6.4-2.3,1.2-3.5,3.2-4.3,5.7,0,.1,0,.2,0,.2,0,0,0,.1-.1.3-.5,0-1-.1-1.4-.3.2-.5.4-1.1.6-1.7h0Z"/>
        <path class="cls-14" d="M40.9,62c1.8.2,3.7.4,5.6.7-.3,1.2-.8,1.4-2,.5-1.4.9-1.4.9-2.3-.3-.7.2-1.3.2-1.3-.9h0Z"/>
        <path class="cls-5" d="M27.2,47.9c.4,1.2.7,2.4,1,3.7,0,.3.2.7.2,1.1-.6,0-.8-.3-.8-1,0-.8-.2-1.8-.6-2.5-.2-.5,0-.8.1-1.2h0Z"/>
        <path class="cls-5" d="M27,46.4c0,.4.1.9.2,1.4-.2,0-.4,0-.8,0,.2-.5.4-1,.7-1.5h0Z"/>
        <path class="cls-8" d="M50.3,12.1c.5.1,1,.2,1.5.3.4.1.7.3,1.1.4-1.1-.1-2.2-.3-3.3-.5.2,0,.5-.2.8-.2Z"/>
        <path class="cls-7" d="M59.5,25.4c-.2-.5-.3-1-.5-1.5.3.3.5.5.7.9,0,.1-.1.4-.3.6Z"/>
        <path class="cls-17" d="M37,60.6c.1,0,.3,0,.4.1-.1,0-.3,0-.4-.1Z"/>
        <path class="cls-17" d="M53.4,13.1c0,0-.2,0-.3,0,0,0,.2,0,.3,0Z"/>
        <path class="cls-8" d="M52,12c0,0,0,0,0-.1,0,0,0,0,0,.1Z"/>
        <path class="cls-18" d="M48.9,8.6s0,0,0,0c0,0,0,0,0,0Z"/>
        <path class="cls-16" d="M40.3,32.2c-1,1.4-1.9,2.6-2.9,3.9-1.3,1.8-2.4,3.8-2.8,6.1-.4,2.1-.5,4.3-.9,6.4,0,.5-.5,1-.7,1.5-.4-.4-1-.6-1.3-1.1-1.1-1.8-1.7-3.9-1.3-6,.4-2.1.9-4.2,2.1-6,1.1-1.7,2.2-3.4,3.3-5.1,1.2-1.8,2.6-3.4,3.8-5.3.7-1.2,1-2.7,1.6-4,.5-1.1.9-2.2,1.5-3.2.6-1,1.2-1.9,1.9-2.7.6-.7,1.4-1.3,2.2-1.9.2-.1.6,0,.9,0,0,.3,0,.6-.2.8-.7.9-1.5,1.6-2,2.6-.6,1-1.1,2.2-1.4,3.4-.8,2.5-1.4,5.1-2.2,7.6-.3,1.1-1.1,2-1.6,3.1h0Z"/>
        <path class="cls-10" d="M50.1,56.1c-.2.7-.6,1.1-1.2.8-.2-.1-.4-.7-.3-1.1,0-.2.5-.6.6-.5.3.2.6.5.8.9h0Z"/>
        <path class="cls-3" d="M52.4,50.5c.4-.2.8-.4,1.1-.4.1,0,.4.4.4.6,0,.6-.2.9-.9.9-.8,0-.8-.4-.7-1.1h0Z"/>
        <path class="cls-1" d="M41.4,56c0-.6.5-.8.9-.6.2,0,.5.5.5.7,0,.2-.4.7-.5.7-.3-.1-.6-.4-.9-.7h0Z"/>
        <path class="cls-24" d="M46,51.3c.7-.6,1.2-.6,1.3,0,0,.3-.2.9-.5,1-.6.1-.9-.2-.8-1h0Z"/>
        <path class="cls-12" d="M38,53.6c0,.4.1.7,0,1.1,0,0-.5.2-.7.1-.2-.1-.3-.5-.4-.7.3-.2.7-.3,1-.4h0Z"/>
        <path class="cls-21" d="M54,44.7c.2-.3.4-.6.7-.8,0,0,.5.2.5.3,0,.3,0,.6-.2.8-.4.5-.7.1-1-.3h0Z"/>
        <path class="cls-25" d="M50.1,47.5c0-.4-.1-.7-.2-1,.3,0,.6-.2.8,0,.2,0,.3.6.2.7-.2.2-.5.3-.8.4h0Z"/>
      </g>
    </g>
  </g>
</svg>